<svg width="500" height="500" viewBox="0 0 500 500" fill="none" xmlns="http://www.w3.org/2000/svg">
<path fill-rule="evenodd" clip-rule="evenodd" d="M264.469 117.04C282.74 97.7907 314.253 92.287 351.41 96.0307C385.885 99.4949 421.338 110.642 446.062 120.979V398.203C420.416 388.425 387.198 378.87 354.232 375.573C323.668 372.472 290.59 374.484 264.469 389.319V117.04ZM250.5 91.7842C222.982 68.1211 183.087 64.601 146.768 68.2328C104.471 72.5073 61.7822 87.0068 35.1857 99.1038C32.7453 100.214 30.6759 102.002 29.2244 104.256C27.7729 106.51 27.0007 109.134 27 111.815V419.128C27.0006 421.465 27.5877 423.765 28.7075 425.816C29.8272 427.868 31.4438 429.606 33.4092 430.87C35.3745 432.135 37.6259 432.887 39.9569 433.056C42.288 433.225 44.6243 432.807 46.7518 431.839C71.3927 420.664 111.092 407.226 149.562 403.343C188.926 399.376 221.92 405.774 239.604 427.844C240.913 429.476 242.572 430.792 244.458 431.697C246.343 432.602 248.408 433.072 250.5 433.072C252.592 433.072 254.657 432.602 256.542 431.697C258.428 430.792 260.087 429.476 261.396 427.844C279.08 405.774 312.074 399.376 351.41 403.343C389.908 407.226 429.635 420.664 454.248 431.839C456.376 432.807 458.712 433.225 461.043 433.056C463.374 432.887 465.625 432.135 467.591 430.87C469.556 429.606 471.173 427.868 472.293 425.816C473.412 423.765 473.999 421.465 474 419.128V111.815C473.999 109.134 473.227 106.51 471.776 104.256C470.324 102.002 468.255 100.214 465.814 99.1038C439.218 87.0068 396.529 72.5073 354.232 68.2328C317.913 64.573 278.018 68.1211 250.5 91.7842ZM263.56 155.722L264.073 154.972C263.057 155.22 262.938 155.469 263.56 155.722ZM154.029 156.375H192.052L191.984 157.323C191.984 169.013 192.007 180.674 192.03 192.317V192.322C192.075 215.547 192.12 238.695 191.984 261.835C191.997 264.985 192.046 268.087 192.095 271.135L192.095 271.137L192.095 271.143C192.38 288.976 192.635 304.998 185.27 318.43C179.299 330.608 167.882 338.473 154.638 342.296C134.291 346.863 114.856 344.072 100.394 335.446C90.6858 329.61 83.1587 320.443 78 309.787L108.868 290.758C109.082 290.758 109.577 291.61 110.255 292.777L110.255 292.778C110.488 293.18 110.744 293.619 111.016 294.074C114.957 300.653 118.357 305.22 125.055 308.535C131.584 310.582 145.961 312.07 151.543 300.416C154.262 295.709 154.125 282.53 153.961 266.781V266.78V266.779C153.92 262.837 153.877 258.734 153.877 254.562C153.877 238.141 153.915 221.784 153.953 205.432V205.432V205.431C153.991 189.092 154.029 172.759 154.029 156.375ZM415.77 273.286C412.814 254.79 400.77 239.25 365.045 224.757C362.564 223.594 360.027 222.502 357.524 221.424L357.523 221.423C347.484 217.099 337.976 213.005 334.691 205.501C333.154 199.927 332.917 196.887 333.914 193.593C336.448 182.681 349.37 179.404 359.505 182.444C366.092 184.471 372.173 189.539 375.991 197.647L375.993 197.645C393.456 186.228 393.457 186.228 405.635 178.644C401.074 171.549 398.811 168.492 395.737 165.468C385.095 153.56 370.923 147.479 347.866 148.003L335.958 149.506C324.539 152.293 313.661 158.374 307.074 166.482C287.817 188.289 293.375 226.294 316.685 242.003C326.354 249.228 337.897 254.089 348.359 258.495C362.847 264.595 375.263 269.823 377.764 279.249C381.818 299.012 363.069 305.346 344.556 303.066C330.857 300.025 323.273 293.168 314.911 280.499L284 298.252C286.839 304.74 290.002 308.297 294.269 313.095C295.334 314.292 296.467 315.567 297.682 316.984C327.073 346.646 400.551 345.125 413.743 300.025L413.781 299.907C414.392 298.028 417.733 287.752 414.993 272.155L415.77 273.286Z" fill="white"/>
</svg>
